Coordinates
version=1
nRows=19
nColumns=33
inDegrees=yes

Units are S.I. units (second, meters, Newtons, ...)
Angles are in degrees.

endheader
time	ground_thorax_rot_x	ground_thorax_rot_y	ground_thorax_rot_z	ground_thorax_tx	ground_thorax_ty	ground_thorax_tz	clav_prot_r	clav_elev_r	scapula_abduction_r	scapula_elevation_r	scapula_upward_rot_r	scapula_winging_r	shoulder_elv_r	plane_of_elev_r	axial_rot_r	elbow_flexion_r	pro_sup_r	wrist_flex_r	wrist_dev_r	clav_prot_l	clav_elev_l	scapula_abduction_l	scapula_elevation_l	scapula_upward_rot_l	scapula_winging_l	shoulder_elv_l	plane_of_elev_l	axial_rot_l	elbow_flexion_l	pro_sup_l	wrist_flex_l	wrist_dev_l	
5.1600	-37.901703	-1.923728	6.620596	-44.424986	799.636676	2.571868	-5.118095	-45.000000	45.000000	-45.000000	25.143930	-5148.820817	-2818.680234	19.808586	-180.000000	3245.242431	-103.621399	14.317020	11.183531	17.601847	40.842601	-44.999998	-41.337474	-31.890852	4397.374493	-6053.877738	24.283604	-26.343888	3246.735816	10.843238	14.707819	-18.688010	
5.1700	-37.607106	-2.265212	6.829792	-43.228833	797.745273	2.927753	-4.753016	-45.000000	45.000000	-45.000000	24.120217	-5148.572211	-2818.731002	19.873264	-180.000000	3245.209237	-103.905892	14.186093	11.068945	17.407835	40.279221	-44.999996	-40.754572	-31.847785	4397.470075	-6053.927728	24.208497	-26.794175	3246.547870	11.070913	14.699626	-18.658290	
5.1800	-37.323219	-2.599647	7.017960	-42.140494	795.950439	3.267894	-4.395260	-45.000000	45.000000	-45.000000	23.112162	-5148.333161	-2818.778307	19.945002	-180.000000	3245.180911	-104.206960	14.066367	10.959761	17.198490	39.709666	-44.999992	-40.182936	-31.805094	4397.588202	-6053.968425	24.143351	-27.237392	3246.371149	11.293719	14.682590	-18.639694	
5.1900	-37.089346	-2.848223	7.096525	-41.274777	794.359709	3.580639	-4.184809	-45.000000	44.999999	-45.000000	22.443922	-5148.152581	-2818.773709	19.958913	-180.000000	3245.173869	-104.584301	13.906301	10.876457	17.065647	39.316190	-44.999986	-39.715279	-31.629519	4397.658100	-6054.042682	24.052492	-27.588539	3246.195490	11.499880	14.643486	-18.599026	
5.2000	-36.895479	-3.052505	7.101101	-40.657712	792.988391	3.857486	-4.058676	-45.000000	44.999999	-45.000000	21.978120	-5148.014528	-2818.738848	19.946394	-180.000000	3245.187038	-105.003643	13.735439	10.815957	16.968778	39.041181	-44.999974	-39.322076	-31.391878	4397.719017	-6054.124471	23.951940	-27.862738	3246.033230	11.689876	14.575853	-18.555531	
5.2100	-36.746809	-3.210073	7.031236	-40.330216	791.862537	4.088932	-4.000955	-45.000000	44.999998	-45.000000	21.686742	-5147.921236	-2818.682535	19.916180	-180.000000	3245.214326	-105.446761	13.568043	10.778321	16.904446	38.876691	-44.999954	-39.017419	-31.118211	4397.769703	-6054.208431	23.859140	-28.056745	3245.883410	11.866145	14.483904	-18.512296	
5.2200	-36.641164	-3.343192	6.913104	-40.308447	790.979050	4.267607	-3.974249	-45.000000	44.999996	-45.000000	21.489942	-5147.865962	-2818.616874	19.880971	-180.000000	3245.253901	-105.883183	13.424537	10.761272	16.854952	38.807970	-44.999918	-38.794907	-30.854196	4397.820099	-6054.284338	23.783803	-28.166033	3245.747102	12.032956	14.365894	-18.478764	
5.2300	-36.572871	-3.463510	6.767116	-40.597067	790.318801	4.388534	-3.947360	-45.000000	44.999994	-45.000000	21.319466	-5147.845178	-2818.551654	19.855692	-180.000000	3245.295976	-106.283336	13.320031	10.759632	16.812621	38.789445	-44.999853	-38.646061	-30.640027	4397.879742	-6054.345673	23.744016	-28.191783	3245.620506	12.198155	14.230885	-18.458239	
5.2400	-36.541983	-3.580257	6.611416	-41.200268	789.858461	4.449317	-3.915723	-45.000000	44.999989	-45.000000	21.162441	-5147.858305	-2818.483277	19.832053	-180.000000	3245.339786	-106.632185	13.255750	10.770760	16.777707	38.835150	-44.999737	-38.568179	-30.483376	4397.946526	-6054.394848	23.730346	-28.119778	3245.502136	12.366982	14.078556	-18.451872	
5.2500	-36.543047	-3.687818	6.449977	-42.122785	789.572605	4.449874	-3.876298	-45.000000	44.999980	-45.000000	21.009047	-5147.907014	-2818.408112	19.816632	-180.000000	3245.380830	-106.923616	13.231392	10.792479	16.760246	38.909709	-44.999529	-38.551344	-30.391455	4398.024100	-6054.432096	23.752755	-27.957325	3245.385467	12.547582	13.920381	-18.453720	
5.2600	-36.572631	-3.805461	6.303994	-43.369798	789.435982	4.392251	-3.825202	-45.000000	44.999964	-45.000000	20.839732	-5147.980446	-2818.317902	19.797186	-180.000000	3245.422440	-107.158559	13.236738	10.819565	16.752827	38.999289	-44.999157	-38.582948	-30.365692	4398.117421	-6054.456403	23.785426	-27.715596	3245.275980	12.744667	13.760574	-18.465974	
5.2700	-36.622009	-3.943265	6.185782	-44.946632	789.425411	4.280225	-3.751454	-45.000000	44.999935	-45.000000	20.631479	-5148.080965	-2818.211457	19.786674	-180.000000	3245.467926	-107.342259	13.266678	10.853212	16.769338	39.072912	-44.998490	-38.650374	-30.429318	4398.235433	-6054.466274	23.832960	-27.420594	3245.174645	12.960004	13.596817	-18.481468	
5.2800	-36.701141	-4.123047	6.119623	-46.857715	789.521143	4.118862	-3.646116	-45.000000	44.999884	-45.000000	20.352869	-5148.201756	-2818.094326	19.763123	-180.000000	3245.516635	-107.487148	13.308683	10.885857	16.810753	39.144195	-44.997296	-38.777554	-30.614121	4398.357990	-6054.459355	23.869172	-27.097742	3245.092759	13.191516	13.433130	-18.503653	
5.2900	-36.805489	-4.358083	6.129590	-49.105614	789.707691	3.913926	-3.491802	-45.000000	44.999792	-45.000000	19.967338	-5148.359026	-2817.966038	19.743950	-180.000000	3245.572351	-107.615345	13.361895	10.920429	16.918249	39.225513	-44.995152	-38.976367	-31.000579	4398.465519	-6054.425292	23.916363	-26.752150	3245.031280	13.431111	13.258497	-18.524555	
5.3000	-36.938856	-4.650577	6.215535	-51.689910	789.974123	3.671347	-3.293739	-45.000000	44.999628	-45.000000	19.472030	-5148.551542	-2817.831230	19.718974	-180.000000	3245.630450	-107.754386	13.417245	10.948388	17.091661	39.320353	-44.991327	-39.257030	-31.584766	4398.547069	-6054.368904	23.960736	-26.390536	3244.994036	13.665511	13.081074	-18.546096	
5.3100	-37.087499	-4.987919	6.363945	-54.606497	790.313594	3.396802	-3.055480	-45.000000	44.999333	-45.000000	18.878859	-5148.785092	-2817.684547	19.710626	-180.000000	3245.696050	-107.931071	13.479027	10.975568	17.338963	39.435205	-44.984434	-39.597934	-32.360085	4398.609802	-6054.290968	24.019373	-26.010750	3244.976826	13.870424	12.894637	-18.561987	
5.3200	-37.254418	-5.339926	6.536286	-57.847062	790.722736	3.095335	-2.801081	-45.000000	44.998805	-45.000000	18.242249	-5149.049192	-2817.528102	19.702822	-180.000000	3245.762067	-108.161305	13.542855	10.995299	17.613669	39.560257	-44.972201	-39.992511	-33.237775	4398.658631	-6054.205609	24.071786	-25.661852	3244.979703	14.030631	12.714982	-18.574345	
5.3300	-37.421087	-5.697711	6.723101	-61.399467	791.200886	2.771320	-2.529487	-45.000000	44.997859	-45.000000	17.561977	-5149.330184	-2817.347716	19.711347	-180.000000	3245.833696	-108.452960	13.612958	11.013558	17.908554	39.698484	-44.949968	-40.407606	-34.204963	4398.699728	-6054.103944	24.127363	-25.342771	3244.998601	14.123233	12.544728	-18.580653	
5.3400	-37.585831	-6.039148	6.890907	-65.248380	791.749520	2.428487	-2.252688	-45.000000	44.996165	-45.000000	16.885830	-5149.606809	-2817.138637	19.719689	-180.000000	3245.907685	-108.798472	13.690110	11.028598	18.158988	39.834943	-44.911038	-40.824906	-35.167999	4398.747722	-6054.000002	24.168850	-25.096662	3245.027937	14.147388	12.396342	-18.583981	
